<?xml version="1.0" encoding="utf-8"?>
<!-- Generator: Adobe Illustrator 16.0.0, SVG Export Plug-In . SVG Version: 6.00 Build 0)  -->
<!DOCTYPE svg PUBLIC "-//W3C//DTD SVG 1.1//EN" "http://www.w3.org/Graphics/SVG/1.1/DTD/svg11.dtd">
<svg version="1.1" id="Layer_1" xmlns="http://www.w3.org/2000/svg" xmlns:xlink="http://www.w3.org/1999/xlink" x="0px" y="0px"
	 width="38.966px" height="29.617px" viewBox="0 0 38.966 29.617" enable-background="new 0 0 38.966 29.617" xml:space="preserve">
<g>
	<defs>
		<rect id="SVGID_1_" width="38.965" height="29.617"/>
	</defs>
	<clipPath id="SVGID_2_">
		<use xlink:href="#SVGID_1_"  overflow="visible"/>
	</clipPath>
	<path clip-path="url(#SVGID_2_)" fill="none" stroke="#F1BD31" stroke-width="2" stroke-miterlimit="10" d="M18.136,1.178
		C13.9,0.501,9.393,1.78,6.143,4.579c-3.25,2.799-5.183,7.067-5.142,11.355c0.044,4.623,2.515,9.278,6.595,11.451
		c4.081,2.173,9.648,1.454,12.691-2.026c1.997-2.284,2.653-6.059,0.589-8.281c-2.193-2.36-5.992-1.84-9.135-1.134
		c-0.878,2.685,1.172,5.676,3.832,6.625s5.64,0.298,8.228-0.832c3.911-1.709,7.635-5.085,7.669-9.353
		c0.026-3.318-2.286-6.334-5.199-7.923c-2.913-1.588-6.335-1.962-9.653-1.944c-1.975,0.011-3.992,0.16-5.813,0.923
		C8.984,4.204,7.368,5.675,6.863,7.584c-0.536,2.023,0.265,4.23,1.657,5.793c1.393,1.563,3.303,2.568,5.247,3.342
		c4.96,1.974,10.436,2.629,15.72,1.884c1.969-0.276,3.958-0.766,5.603-1.883c1.644-1.117,2.896-2.961,2.876-4.949
		c-0.027-2.674-2.344-4.886-4.899-5.679c-2.554-0.794-5.303-0.485-7.959-0.169c-4.258,0.507-8.719,1.09-12.197,3.598
		s-5.483,7.614-3.159,11.218c2.289,3.552,7.297,3.933,11.5,3.498c1.971-0.203,3.984-0.521,5.703-1.507
		c1.718-0.986,3.099-2.777,3.079-4.759c-0.021-1.962-1.434-3.729-3.205-4.574c-1.771-0.844-3.832-0.886-5.768-0.561
		c-4.119,0.692-8.42,3.937-7.965,8.088c0.231,2.115,1.689,3.95,3.482,5.098c1.792,1.146,3.896,1.696,5.982,2.113
		c3.729,0.745,8.382,0.738,10.403-2.48c1.165-1.854,1.023-4.297,0.178-6.317c-0.845-2.02-2.305-3.71-3.741-5.363"/>
</g>
</svg>
