<?xml version="1.0" encoding="utf-8"?>
<!-- Generator: Adobe Illustrator 16.0.0, SVG Export Plug-In . SVG Version: 6.00 Build 0)  -->
<!DOCTYPE svg PUBLIC "-//W3C//DTD SVG 1.1//EN" "http://www.w3.org/Graphics/SVG/1.1/DTD/svg11.dtd">
<svg version="1.1" id="Layer_1" xmlns="http://www.w3.org/2000/svg" xmlns:xlink="http://www.w3.org/1999/xlink" x="0px" y="0px"
	 width="1365.98px" height="792px" viewBox="0 0 1365.98 792" enable-background="new 0 0 1365.98 792" xml:space="preserve">
<g>
	<defs>
		<rect id="SVGID_1_" width="1365.98" height="792"/>
	</defs>
	<clipPath id="SVGID_2_">
		<use xlink:href="#SVGID_1_"  overflow="visible"/>
	</clipPath>
	<g clip-path="url(#SVGID_2_)">
		<defs>
			<rect id="SVGID_3_" width="1365.98" height="792"/>
		</defs>
		<clipPath id="SVGID_4_">
			<use xlink:href="#SVGID_3_"  overflow="visible"/>
		</clipPath>
		<g opacity="0.6" clip-path="url(#SVGID_4_)">
			<g>
				<defs>
					<rect id="SVGID_5_" x="884.135" y="58.335" width="403.305" height="306.529"/>
				</defs>
				<clipPath id="SVGID_6_">
					<use xlink:href="#SVGID_5_"  overflow="visible"/>
				</clipPath>
				<path clip-path="url(#SVGID_6_)" fill="#2E1143" d="M1287.41,284.859c0.01-0.047,0.018-0.078,0.026-0.12
					c-0.001-0.032,0.01-0.066,0.007-0.101l-70.186-152.74l0.027,0.001c-0.242-0.451-0.478-0.91-0.707-1.368
					c-0.084-0.059-0.178-0.104-0.257-0.166l-0.116,0.016l-201.351-71.975l-0.2-0.071l-130.195,34.68
					c-0.049,0.212-0.076,0.426-0.146,0.633c-0.05,0.325-0.111,0.647-0.178,0.969l111.674,123.422
					c0.179,0.02,0.356,0.042,0.532,0.074l0.014-0.016l99.229-4.126l101.944,150.893l89.807-79.196
					C1287.344,285.412,1287.36,285.15,1287.41,284.859 M1215.723,131.83l69.685,151.654l-228.906-130.047L1215.723,131.83z
					 M1054.961,152.268l-1.344-0.467l-0.064-0.037l0.013,0.018L890.311,95.134l320.265,36.012L1054.961,152.268z M1210.357,129.745
					l-179.042-20.133l-15.623-49.452L1210.357,129.745z M1014.168,59.881l15.66,49.564l-141.853-15.95L1014.168,59.881z
					 M996.11,216.336L886.591,95.292l167.098,57.981L996.11,216.336z M997.655,216.674l57.266-62.725l0.318,0.311l39.445,58.38
					L997.655,216.674z M1197.791,362.808l-137.693-203.8l174.969,170.929L1197.791,362.808z M1236.097,329.03L1060,157
					l225.742,128.249L1236.097,329.03z"/>
			</g>
		</g>
		<g opacity="0.6" clip-path="url(#SVGID_4_)">
			<g>
				<defs>
					<rect id="SVGID_7_" x="233.29" y="38.305" width="257.282" height="257.67"/>
				</defs>
				<clipPath id="SVGID_8_">
					<use xlink:href="#SVGID_7_"  overflow="visible"/>
				</clipPath>
				<path clip-path="url(#SVGID_8_)" fill="#2E1143" d="M233.29,188.105l65.228,4.374l109.43,103.495l0.36-0.899l30.581-102.714
					l51.683-140.664l-0.962-0.059L280.017,38.308v-0.003c-0.447,0.371-0.937,0.694-1.476,0.962L233.29,188.105z M281.298,39.832
					l207.259,13.183l-50.45,137.302L281.298,39.832z M281.897,42.403l155.66,149.385L407.48,292.771L281.897,42.403z
					 M299.505,191.431l-18.88-148.352l124.547,248.304L299.505,191.431z M235.195,186.787l43.894-144.372L298,191L235.195,186.787z"
					/>
			</g>
		</g>
		<g opacity="0.6" clip-path="url(#SVGID_4_)">
			<g>
				<defs>
					<rect id="SVGID_9_" x="628.636" y="344.194" width="334.631" height="350.874"/>
				</defs>
				<clipPath id="SVGID_10_">
					<use xlink:href="#SVGID_9_"  overflow="visible"/>
				</clipPath>
				<path clip-path="url(#SVGID_10_)" fill="#2E1143" d="M963.267,491.978c-0.351-0.188-0.701-0.374-1.075-0.574l-0.124,0.138
					l-332.224-147.08c-0.205-0.233-0.587-0.403-0.846-0.117c-0.137,0.15-0.221,0.498-0.322,0.685
					c-0.094,0.171,0.009,0.674,0.01,0.874c0.004,0.296,0.01,0.593,0.014,0.888c0.01,0.626,0.022,1.251,0.034,1.876
					c0.014,0.7,0.032,1.399,0.052,2.097c0.022,0.803,0.047,1.605,0.075,2.408c0.03,0.925,0.065,1.851,0.103,2.777
					c0.041,1.065,0.086,2.13,0.131,3.195c0.054,1.206,0.108,2.414,0.162,3.622c0.062,1.349,0.126,2.696,0.189,4.043
					c0.07,1.481,0.141,2.958,0.211,4.437c0.076,1.598,0.153,3.195,0.23,4.794c0.081,1.701,0.162,3.403,0.243,5.105
					c0.084,1.791,0.168,3.581,0.253,5.373c0.086,1.865,0.174,3.731,0.259,5.596c0.089,1.926,0.177,3.853,0.264,5.78
					c0.089,1.977,0.178,3.954,0.267,5.933c0.09,2.017,0.181,4.036,0.271,6.054c0.091,2.049,0.183,4.099,0.273,6.146
					c0.092,2.071,0.185,4.142,0.278,6.212c0.093,2.085,0.186,4.169,0.28,6.251c0.094,2.087,0.187,4.175,0.283,6.264
					c0.093,2.082,0.188,4.166,0.284,6.246c0.093,2.069,0.188,4.137,0.282,6.207c0.096,2.048,0.19,4.098,0.283,6.146
					c0.094,2.021,0.186,4.041,0.281,6.062c0.089,1.988,0.182,3.976,0.273,5.962c0.089,1.949,0.181,3.899,0.269,5.848
					c0.087,1.902,0.174,3.806,0.26,5.711c0.086,1.85,0.171,3.698,0.254,5.55c0.08,1.785,0.162,3.57,0.243,5.355
					c0.077,1.706,0.155,3.413,0.232,5.118c0.073,1.609,0.144,3.222,0.217,4.83c0.068,1.494,0.135,2.99,0.204,4.484
					c0.06,1.362,0.12,2.721,0.183,4.08c0.054,1.207,0.11,2.412,0.164,3.62c0.047,1.042,0.095,2.082,0.142,3.124
					c0.039,0.871,0.079,1.74,0.12,2.608c0.031,0.706,0.062,1.41,0.095,2.114c0.026,0.551,0.05,1.104,0.077,1.656
					c0.019,0.429,0.039,0.854,0.058,1.283c0.016,0.34,0.031,0.681,0.048,1.017c0.013,0.282,0.026,0.564,0.005,0.84
					c0.022,0.215,0.045,0.428,0.061,0.64c0.132,0.346,0.224,0.703,0.3,1.062c0.051,0.039,0.105,0.074,0.154,0.114l0.059,0.013
					l229.611,170.371l0.336,0.251c0.372-0.28,0.752-0.53,1.136-0.741l-0.058-0.149l94.242-199.836L963.267,491.978z M960.22,492.563
					l-144.151,65.088L632.466,347.463L960.22,492.563z M817.225,558.976l141.716-63.987L841.648,624.343l-24.478-64.549l0.929,0.181
					L817.225,558.976z M630.283,347.523l183.308,209.851l-8.82-1.73l-166.505-32.688L630.283,347.523z M640.947,525.2
					l174.277,34.212l50.19,132.341L640.947,525.2z M867.302,691.992l-25.313-66.755l0.613,0.559l116.512-128.491L867.302,691.992z"
					/>
			</g>
		</g>
		<g opacity="0.6" clip-path="url(#SVGID_4_)">
			<g>
				<defs>
					<rect id="SVGID_11_" x="-348.403" y="462.942" width="649.002" height="281.534"/>
				</defs>
				<clipPath id="SVGID_12_">
					<use xlink:href="#SVGID_11_"  overflow="visible"/>
				</clipPath>
				<path clip-path="url(#SVGID_12_)" fill="#2E1143" d="M84.83,508.085l-0.18,0.439L-16.958,646.819l-130.338-183.877
					l-50.65,44.493l-0.056-0.043l-0.335,0.355l-150.066,33.466l53.253,69.891l-0.077,0.084c0.231,0.229,0.448,0.473,0.649,0.726
					l277.451,37.488l0.086,0.125l0.283-0.046l240.548,94.726l0.684,0.27l75.293-145.574c0.228-0.789,0.498-1.561,0.832-2.312
					L84.83,508.085z M-147.58,465.364L-20.495,644.65l-176.138-136.201L-147.58,465.364z M-345.561,542.252l145.246-32.392
					l-93.704,100.035L-345.561,542.252z M-292.407,610.561l94.58-100.971l178.255,137.835L-292.407,610.561z M293.582,595.476
					L81.331,565.415l-0.047-0.006l4.783-55.057L293.582,595.476z M84.312,511.742l-4.768,54.82l-93.115,78.406L84.312,511.742z
					 M81.462,567.082l215.097,30.464l-310.45,49.824L81.462,567.082z M-13.596,648.974l165.869-26.62l69.922,119.474
					L-13.596,648.974z M224.044,741.761l-70.046-119.684l143.89-23.094L224.044,741.761z"/>
			</g>
		</g>
		<g opacity="0.6" clip-path="url(#SVGID_4_)">
			<g>
				<defs>
					<rect id="SVGID_13_" x="1028.97" y="628.367" width="650.69" height="230.653"/>
				</defs>
				<clipPath id="SVGID_14_">
					<use xlink:href="#SVGID_13_"  overflow="visible"/>
				</clipPath>
				<path clip-path="url(#SVGID_14_)" fill="#2E1143" d="M1454.186,642.856l-0.122,0.46l-82.705,150.361l-153.202-165.311
					l-44.415,50.718l-0.062-0.036l-0.286,0.396l-144.421,52.749l61.914,62.349l-0.067,0.095c0.26,0.196,0.506,0.41,0.738,0.634
					l279.971,0.99l0.101,0.112l0.275-0.082l250.847,62.55l0.712,0.179l55.669-154.149c0.123-0.812,0.29-1.612,0.524-2.4
					L1454.186,642.856z M1218.191,630.806l149.377,161.183l-192.395-112.069L1218.191,630.806z M1031.925,732.853l139.782-51.056
					l-79.858,111.4L1031.925,732.853z M1093.533,793.646l80.607-112.441l194.705,113.414L1093.533,793.646z M1672.55,702.278
					l-214.357-2.126h-0.046l-2.439-55.209L1672.55,702.278z M1454.148,646.549l2.422,54.975l-82.097,89.879L1454.148,646.549z
					 M1458.539,701.788l217.233,2.155l-301.303,89.881L1458.539,701.788z M1374.973,795.376l160.98-48.021l84.905,109.336
					L1374.973,795.376z M1622.683,856.383l-85.055-109.528l139.651-41.659L1622.683,856.383z"/>
			</g>
		</g>
	</g>
	<g clip-path="url(#SVGID_2_)">
		<defs>
			<rect id="SVGID_15_" width="1365.98" height="792"/>
		</defs>
		<clipPath id="SVGID_16_">
			<use xlink:href="#SVGID_15_"  overflow="visible"/>
		</clipPath>
		<g opacity="0.8" clip-path="url(#SVGID_16_)">
			<g>
				<defs>
					<rect id="SVGID_17_" x="495.543" y="56.797" width="127.914" height="286.406"/>
				</defs>
				<clipPath id="SVGID_18_">
					<use xlink:href="#SVGID_17_"  overflow="visible"/>
				</clipPath>
				
					<line clip-path="url(#SVGID_18_)" fill="none" stroke="#6CC8BE" stroke-miterlimit="10" x1="496" y1="57" x2="498.435" y2="62.484"/>
				
					<line clip-path="url(#SVGID_18_)" fill="none" stroke="#6CC8BE" stroke-miterlimit="10" stroke-dasharray="12.037,12.037" x1="503.32" y1="73.485" x2="618.122" y2="332.016"/>
				
					<line clip-path="url(#SVGID_18_)" fill="none" stroke="#6CC8BE" stroke-miterlimit="10" x1="620.565" y1="337.516" x2="623" y2="343"/>
			</g>
		</g>
		<g opacity="0.8" clip-path="url(#SVGID_16_)">
			<g>
				<defs>
					<rect id="SVGID_19_" x="867.521" y="698.856" width="68.035" height="223.852"/>
				</defs>
				<clipPath id="SVGID_20_">
					<use xlink:href="#SVGID_19_"  overflow="visible"/>
				</clipPath>
				
					<line clip-path="url(#SVGID_20_)" fill="none" stroke="#6CC8BE" stroke-miterlimit="10" x1="868" y1="699" x2="869.724" y2="704.747"/>
				
					<line clip-path="url(#SVGID_20_)" fill="none" stroke="#6CC8BE" stroke-miterlimit="10" stroke-dasharray="11.653,11.653" x1="873.073" y1="715.908" x2="931.679" y2="911.236"/>
			</g>
		</g>
		<g opacity="0.8" clip-path="url(#SVGID_16_)">
			<g>
				<defs>
					<rect id="SVGID_21_" x="852.217" y="736.156" width="179.644" height="191.251"/>
				</defs>
				<clipPath id="SVGID_22_">
					<use xlink:href="#SVGID_21_"  overflow="visible"/>
				</clipPath>
				
					<line clip-path="url(#SVGID_22_)" fill="none" stroke="#6CC8BE" stroke-miterlimit="10" x1="1031.491" y1="736.498" x2="1027.384" y2="740.872"/>
				
					<line clip-path="url(#SVGID_22_)" fill="none" stroke="#6CC8BE" stroke-miterlimit="10" stroke-dasharray="11.876,11.876" x1="1019.256" y1="749.53" x2="860.753" y2="918.361"/>
			</g>
		</g>
		<g opacity="0.8" clip-path="url(#SVGID_16_)">
			<g>
				<defs>
					<rect id="SVGID_23_" x="45.601" y="750.698" width="174.798" height="230.604"/>
				</defs>
				<clipPath id="SVGID_24_">
					<use xlink:href="#SVGID_23_"  overflow="visible"/>
				</clipPath>
				
					<line clip-path="url(#SVGID_24_)" fill="none" stroke="#6CC8BE" stroke-miterlimit="10" x1="220" y1="751" x2="216.38" y2="755.785"/>
				
					<line clip-path="url(#SVGID_24_)" fill="none" stroke="#6CC8BE" stroke-miterlimit="10" stroke-dasharray="12.018,12.018" x1="209.129" y1="765.369" x2="53.246" y2="971.423"/>
			</g>
		</g>
		<g opacity="0.8" clip-path="url(#SVGID_16_)">
			<g>
				<defs>
					<rect id="SVGID_25_" x="1193.5" y="366.941" width="31" height="254.118"/>
				</defs>
				<clipPath id="SVGID_26_">
					<use xlink:href="#SVGID_25_"  overflow="visible"/>
				</clipPath>
				
					<line clip-path="url(#SVGID_26_)" fill="none" stroke="#6CC8BE" stroke-miterlimit="10" x1="1224" y1="621" x2="1223.296" y2="615.041"/>
				
					<line clip-path="url(#SVGID_26_)" fill="none" stroke="#6CC8BE" stroke-miterlimit="10" stroke-dasharray="11.608,11.608" x1="1221.935" y1="603.514" x2="1195.385" y2="378.723"/>
				
					<line clip-path="url(#SVGID_26_)" fill="none" stroke="#6CC8BE" stroke-miterlimit="10" x1="1194.704" y1="372.958" x2="1194" y2="367"/>
			</g>
		</g>
		<g opacity="0.8" clip-path="url(#SVGID_16_)">
			<g>
				<defs>
					<rect id="SVGID_27_" x="1289.75" y="286.565" width="162.5" height="92.87"/>
				</defs>
				<clipPath id="SVGID_28_">
					<use xlink:href="#SVGID_27_"  overflow="visible"/>
				</clipPath>
				
					<line clip-path="url(#SVGID_28_)" fill="none" stroke="#6CC8BE" stroke-miterlimit="10" stroke-dasharray="11.62,11.62" x1="1436.678" y1="370.299" x2="1300.27" y2="292.832"/>
				
					<line clip-path="url(#SVGID_28_)" fill="none" stroke="#6CC8BE" stroke-miterlimit="10" x1="1295.218" y1="289.963" x2="1290" y2="287"/>
			</g>
		</g>
		<g opacity="0.8" clip-path="url(#SVGID_16_)">
			<g>
				<defs>
					<rect id="SVGID_29_" x="411.877" y="300.515" width="212.246" height="54.97"/>
				</defs>
				<clipPath id="SVGID_30_">
					<use xlink:href="#SVGID_29_"  overflow="visible"/>
				</clipPath>
				
					<line clip-path="url(#SVGID_30_)" fill="none" stroke="#6CC8BE" stroke-miterlimit="10" x1="624" y1="355" x2="618.186" y2="353.519"/>
				
					<line clip-path="url(#SVGID_30_)" fill="none" stroke="#6CC8BE" stroke-miterlimit="10" stroke-dasharray="12.163,12.163" x1="606.399" y1="350.517" x2="423.708" y2="303.982"/>
				
					<line clip-path="url(#SVGID_30_)" fill="none" stroke="#6CC8BE" stroke-miterlimit="10" x1="417.814" y1="302.481" x2="412" y2="301"/>
			</g>
		</g>
		<g opacity="0.8" clip-path="url(#SVGID_16_)">
			<g>
				<defs>
					<rect id="SVGID_31_" x="1217.67" y="424.621" width="240.66" height="206.758"/>
				</defs>
				<clipPath id="SVGID_32_">
					<use xlink:href="#SVGID_31_"  overflow="visible"/>
				</clipPath>
				
					<line clip-path="url(#SVGID_32_)" fill="none" stroke="#6CC8BE" stroke-miterlimit="10" stroke-dasharray="12.171,12.171" x1="1444.211" y1="436.835" x2="1227.17" y2="623.128"/>
				
					<line clip-path="url(#SVGID_32_)" fill="none" stroke="#6CC8BE" stroke-miterlimit="10" x1="1222.553" y1="627.092" x2="1218" y2="631"/>
			</g>
		</g>
		<g opacity="0.8" clip-path="url(#SVGID_16_)">
			<g>
				<defs>
					<path id="SVGID_33_" d="M812,553L812,553z"/>
				</defs>
				<clipPath id="SVGID_34_">
					<use xlink:href="#SVGID_33_"  overflow="visible"/>
				</clipPath>
			</g>
		</g>
		<g opacity="0.8" clip-path="url(#SVGID_16_)">
			<g>
				<defs>
					<path id="SVGID_35_" d="M404,295L404,295z"/>
				</defs>
				<clipPath id="SVGID_36_">
					<use xlink:href="#SVGID_35_"  overflow="visible"/>
				</clipPath>
			</g>
		</g>
		<g opacity="0.8" clip-path="url(#SVGID_16_)">
			<g>
				<defs>
					<rect id="SVGID_37_" x="1223.6" y="-139.305" width="208.801" height="270.61"/>
				</defs>
				<clipPath id="SVGID_38_">
					<use xlink:href="#SVGID_37_"  overflow="visible"/>
				</clipPath>
				
					<line clip-path="url(#SVGID_38_)" fill="none" stroke="#6CC8BE" stroke-miterlimit="10" stroke-dasharray="12.179,12.179" x1="1420.906" y1="-124.599" x2="1231.378" y2="121.423"/>
				
					<line clip-path="url(#SVGID_38_)" fill="none" stroke="#6CC8BE" stroke-miterlimit="10" x1="1227.662" y1="126.247" x2="1224" y2="131"/>
			</g>
		</g>
		<g opacity="0.8" clip-path="url(#SVGID_16_)">
			<g>
				<defs>
					<rect id="SVGID_39_" x="637.508" y="534.91" width="72.984" height="392.18"/>
				</defs>
				<clipPath id="SVGID_40_">
					<use xlink:href="#SVGID_39_"  overflow="visible"/>
				</clipPath>
				
					<line clip-path="url(#SVGID_40_)" fill="none" stroke="#6CC8BE" stroke-miterlimit="10" x1="638" y1="535" x2="639.084" y2="540.901"/>
				
					<line clip-path="url(#SVGID_40_)" fill="none" stroke="#6CC8BE" stroke-miterlimit="10" stroke-dasharray="11.714,11.714" x1="641.2" y1="552.423" x2="707.858" y2="915.338"/>
			</g>
		</g>
		<g opacity="0.8" clip-path="url(#SVGID_16_)">
			<g>
				<defs>
					<rect id="SVGID_41_" x="-46.231" y="-129.443" width="318.462" height="166.886"/>
				</defs>
				<clipPath id="SVGID_42_">
					<use xlink:href="#SVGID_41_"  overflow="visible"/>
				</clipPath>
				
					<line clip-path="url(#SVGID_42_)" fill="none" stroke="#6CC8BE" stroke-miterlimit="10" x1="272" y1="37" x2="266.681" y2="34.223"/>
				
					<line clip-path="url(#SVGID_42_)" fill="none" stroke="#6CC8BE" stroke-miterlimit="10" stroke-dasharray="11.956,11.956" x1="256.083" y1="28.691" x2="-35.382" y2="-123.457"/>
			</g>
		</g>
		<g opacity="0.8" clip-path="url(#SVGID_16_)">
			<g>
				<defs>
					<rect id="SVGID_43_" x="-108.13" y="186.517" width="334.26" height="90.966"/>
				</defs>
				<clipPath id="SVGID_44_">
					<use xlink:href="#SVGID_43_"  overflow="visible"/>
				</clipPath>
				
					<line clip-path="url(#SVGID_44_)" fill="none" stroke="#6CC8BE" stroke-miterlimit="10" x1="226" y1="187" x2="220.207" y2="188.561"/>
				
					<line clip-path="url(#SVGID_44_)" fill="none" stroke="#6CC8BE" stroke-miterlimit="10" stroke-dasharray="12.367,12.367" x1="208.266" y1="191.779" x2="-96.236" y2="273.83"/>
			</g>
		</g>
		<g opacity="0.8" clip-path="url(#SVGID_16_)">
			<g>
				<defs>
					<rect id="SVGID_45_" x="77.555" y="198.773" width="156.89" height="306.454"/>
				</defs>
				<clipPath id="SVGID_46_">
					<use xlink:href="#SVGID_45_"  overflow="visible"/>
				</clipPath>
				
					<line clip-path="url(#SVGID_46_)" fill="none" stroke="#6CC8BE" stroke-miterlimit="10" x1="78" y1="505" x2="80.725" y2="499.655"/>
				
					<line clip-path="url(#SVGID_46_)" fill="none" stroke="#6CC8BE" stroke-miterlimit="10" stroke-dasharray="12.277,12.277" x1="86.301" y1="488.717" x2="228.487" y2="209.814"/>
				
					<line clip-path="url(#SVGID_46_)" fill="none" stroke="#6CC8BE" stroke-miterlimit="10" x1="231.275" y1="204.346" x2="234" y2="199"/>
			</g>
		</g>
		<g opacity="0.8" clip-path="url(#SVGID_16_)">
			<g>
				<defs>
					<rect id="SVGID_47_" x="223.768" y="530.557" width="408.464" height="214.886"/>
				</defs>
				<clipPath id="SVGID_48_">
					<use xlink:href="#SVGID_47_"  overflow="visible"/>
				</clipPath>
				
					<line clip-path="url(#SVGID_48_)" fill="none" stroke="#6CC8BE" stroke-miterlimit="10" x1="632" y1="531" x2="626.687" y2="533.787"/>
				
					<line clip-path="url(#SVGID_48_)" fill="none" stroke="#6CC8BE" stroke-miterlimit="10" stroke-dasharray="12.127,12.127" x1="615.947" y1="539.42" x2="234.684" y2="739.396"/>
				
					<line clip-path="url(#SVGID_48_)" fill="none" stroke="#6CC8BE" stroke-miterlimit="10" x1="229.313" y1="742.213" x2="224" y2="745"/>
			</g>
		</g>
		<g opacity="0.8" clip-path="url(#SVGID_16_)">
			<g>
				<defs>
					<rect id="SVGID_49_" x="633.847" y="222.524" width="366.303" height="118.952"/>
				</defs>
				<clipPath id="SVGID_50_">
					<use xlink:href="#SVGID_49_"  overflow="visible"/>
				</clipPath>
				
					<line clip-path="url(#SVGID_50_)" fill="none" stroke="#6CC8BE" stroke-miterlimit="10" x1="634" y1="341" x2="639.711" y2="339.159"/>
				
					<line clip-path="url(#SVGID_50_)" fill="none" stroke="#6CC8BE" stroke-miterlimit="10" stroke-dasharray="12.018,12.018" x1="651.148" y1="335.471" x2="988.57" y2="226.685"/>
				
					<line clip-path="url(#SVGID_50_)" fill="none" stroke="#6CC8BE" stroke-miterlimit="10" x1="994.289" y1="224.841" x2="1000" y2="223"/>
			</g>
		</g>
		<g opacity="0.8" clip-path="url(#SVGID_16_)">
			<g>
				<defs>
					<rect id="SVGID_51_" x="769.524" y="-259.15" width="112.951" height="348.303"/>
				</defs>
				<clipPath id="SVGID_52_">
					<use xlink:href="#SVGID_51_"  overflow="visible"/>
				</clipPath>
				
					<line clip-path="url(#SVGID_52_)" fill="none" stroke="#6CC8BE" stroke-miterlimit="10" x1="882" y1="89" x2="880.162" y2="83.289"/>
				
					<line clip-path="url(#SVGID_52_)" fill="none" stroke="#6CC8BE" stroke-miterlimit="10" stroke-dasharray="12.192,12.192" x1="876.427" y1="71.683" x2="773.705" y2="-247.485"/>
			</g>
		</g>
		<g opacity="0.8" clip-path="url(#SVGID_16_)">
			<g>
				<defs>
					<rect id="SVGID_53_" x="965.504" y="222.937" width="34.996" height="266.125"/>
				</defs>
				<clipPath id="SVGID_54_">
					<use xlink:href="#SVGID_53_"  overflow="visible"/>
				</clipPath>
				
					<line clip-path="url(#SVGID_54_)" fill="none" stroke="#6CC8BE" stroke-miterlimit="10" x1="966" y1="489" x2="966.761" y2="483.048"/>
				
					<line clip-path="url(#SVGID_54_)" fill="none" stroke="#6CC8BE" stroke-miterlimit="10" stroke-dasharray="12.198,12.198" x1="968.308" y1="470.948" x2="998.467" y2="235.001"/>
				
					<line clip-path="url(#SVGID_54_)" fill="none" stroke="#6CC8BE" stroke-miterlimit="10" x1="999.239" y1="228.952" x2="1000" y2="223"/>
			</g>
		</g>
		<g opacity="0.8" clip-path="url(#SVGID_16_)">
			<g>
				<defs>
					<path id="SVGID_55_" d="M1172,679L1172,679z"/>
				</defs>
				<clipPath id="SVGID_56_">
					<use xlink:href="#SVGID_55_"  overflow="visible"/>
				</clipPath>
			</g>
		</g>
		<g opacity="0.8" clip-path="url(#SVGID_16_)">
			<g>
				<defs>
					<path id="SVGID_57_" d="M1000,223L1000,223z"/>
				</defs>
				<clipPath id="SVGID_58_">
					<use xlink:href="#SVGID_57_"  overflow="visible"/>
				</clipPath>
			</g>
		</g>
		<g opacity="0.8" clip-path="url(#SVGID_16_)">
			<g>
				<defs>
					<rect id="SVGID_59_" x="235.504" y="192.933" width="54.992" height="402.134"/>
				</defs>
				<clipPath id="SVGID_60_">
					<use xlink:href="#SVGID_59_"  overflow="visible"/>
				</clipPath>
				
					<line clip-path="url(#SVGID_60_)" fill="none" stroke="#6CC8BE" stroke-miterlimit="10" x1="236" y1="193" x2="236.799" y2="198.947"/>
				
					<line clip-path="url(#SVGID_60_)" fill="none" stroke="#6CC8BE" stroke-miterlimit="10" stroke-dasharray="11.928,11.928" x1="238.387" y1="210.768" x2="288.407" y2="583.143"/>
				
					<line clip-path="url(#SVGID_60_)" fill="none" stroke="#6CC8BE" stroke-miterlimit="10" x1="289.201" y1="589.054" x2="290" y2="595"/>
			</g>
		</g>
	</g>
</g>
</svg>
