<?xml version="1.0" encoding="utf-8"?>
<!-- Generator: Adobe Illustrator 22.0.0, SVG Export Plug-In . SVG Version: 6.00 Build 0)  -->
<svg version="1.1" id="Layer_1" xmlns="http://www.w3.org/2000/svg" xmlns:xlink="http://www.w3.org/1999/xlink" x="0px" y="0px"
	 viewBox="0 0 453 180" style="enable-background:new 0 0 453 180;" xml:space="preserve">
<style type="text/css">
	.st0{fill:#FFFFFF;}
</style>
<path class="st0" d="M48.7,34.2c-10.7,0-20.6,3.5-28.6,9.3v-9h-20v46.1C0,81.4,0,82.2,0,82.9c0,0.7,0,1.5,0.1,2.2V180h20v-57.7
	c8,5.9,17.9,9.4,28.6,9.4c26.9,0,48.7-21.8,48.7-48.7C97.4,56.1,75.6,34.2,48.7,34.2 M48.7,111.6c-15.2,0-27.8-12-28.6-27
	c0-0.6-0.1-1.1-0.1-1.7c0-0.6,0-1.2,0.1-1.7c0.9-15,13.4-27,28.6-27c15.8,0,28.7,12.9,28.7,28.7C77.4,98.7,64.5,111.6,48.7,111.6z"
	/>
<path class="st0" d="M170.7,39.8c-13.7-7.9-30.7-7.5-44,0.8v-6h-20V132h20V80l0.2-7.1c0.1-5.1,3.6-10.5,9.2-14.5
	c6.4-4.6,14.7-5.5,21.8-2.5c3.3-6.1,7.7-11.4,13-15.8L170.7,39.8"/>
<path class="st0" d="M316.3,34.2c-26.9,0-48.7,21.8-48.7,48.7c0,26.9,21.8,48.7,48.7,48.7S365,109.8,365,82.9
	C365,56.1,343.2,34.2,316.3,34.2 M316.3,111.6c-15.8,0-28.7-12.9-28.7-28.7c0-15.8,12.9-28.7,28.7-28.7c15.8,0,28.7,12.9,28.7,28.7
	C345,98.7,332.1,111.6,316.3,111.6z"/>
<path class="st0" d="M449.2,5.9c-14.5-8.4-32.6-7.5-46.2,2.3c-10.8,7.8-17.2,18.8-17.5,30.2l0,0.7H368v20h16.4V132h20V59.1h22.7
	c-0.2-1.8-0.3-3.6-0.3-5.5c0-5,0.7-9.9,2-14.5h-23.4l0-0.1c0.1-5.1,3.6-10.5,9.2-14.5c6.5-4.7,15-5.5,22.2-2.4
	c4.1-5.8,9.2-10.7,15.2-14.5L449.2,5.9"/>
<path class="st0" d="M210.3,34.2c-2.8,0-5.5,0.2-8.2,0.7c-9.7,1.6-18.5,6.2-25.3,12.7c-4.1,3.9-7.5,8.5-10.1,13.6
	c-2.4,4.9-4.1,10.2-4.8,15.8c-0.2,1.9-0.4,3.9-0.4,5.9c0,26.9,21.8,48.7,48.7,48.7S259,109.8,259,82.9
	C259,56.1,237.1,34.2,210.3,34.2 M210.3,111.6c-10.2,0-19.1-5.3-24.2-13.4c-2.8-4.4-4.5-9.7-4.5-15.3c0-15.8,12.9-28.7,28.7-28.7
	c5.9,0,11.4,1.8,15.9,4.9C233.9,64.2,239,73,239,82.9C239,98.7,226.1,111.6,210.3,111.6z"/>
</svg>
